# xmcd
#
# Track frame offsets:
#	150
#	1432
#	11819
#	39002
#	73909
#	94332
#	164414
#	184790
#	202157
#	204347
#	222002
#	237238
#
# Disc length: 3175 seconds
# Revision: 0
# Processed by: cddbd v1.5.2PL0 Copyright (c) Steve Scherf et al.
# Submitted via: dBpowerAMP V12.0
#
DISCID=a50c650c
DTITLE=Hale Dwoskin - The Inner Circle Retreat 03 CD 18
DYEAR=2007
DGENRE=Speech
TTITLE0=Intro Music
TTITLE1=How to Release Anger
TTITLE2=Resisting Offensive People
TTITLE3=The Purpose of the Goals Process - Taking Action
TTITLE4=Being Afraid of Being One with Others
TTITLE5=You Do Not Have to Dissect Your Story - Focus on the Present Moment
TTITLE6=Sharing on Results from Attending a Retreat
TTITLE7=Hale Sharing on His Perspective - The Early Retreats
TTITLE8=The New Basic Audio Program
TTITLE9=The Are You Exercise
TTITLE10=Sharing
TTITLE11=Concluding Music
EXTD=
EXTT0=
EXTT1=
EXTT2=
EXTT3=
EXTT4=
EXTT5=
EXTT6=
EXTT7=
EXTT8=
EXTT9=
EXTT10=
EXTT11=
PLAYORDER=
